<svg xmlns="http://www.w3.org/2000/svg" viewBox="0 0 1280 360" font-family="-apple-system,BlinkMacSystemFont,Segoe UI,Roboto,Helvetica,Arial,sans-serif">
  <defs>
    <linearGradient id="bg" x1="0" y1="0" x2="0" y2="1">
      <stop offset="0" stop-color="#12202f"/><stop offset="0.6" stop-color="#0b0e14"/>
    </linearGradient>
  </defs>
  <rect width="1280" height="360" fill="url(#bg)"/>
  <text x="812" y="322" fill="#8fa0b2" font-size="16">inference-time compute  →</text>
  <polyline points="820,300 905,272 990,236 1075,182 1160,108 1228,64" fill="none" stroke="#5c9dff" stroke-width="4" stroke-linecap="round" stroke-linejoin="round"/>
  <g fill="#5c9dff">
    <circle cx="820" cy="300" r="6"/><circle cx="905" cy="272" r="6"/><circle cx="990" cy="236" r="6"/>
    <circle cx="1075" cy="182" r="6"/><circle cx="1160" cy="108" r="6"/><circle cx="1228" cy="64" r="8" fill="#35d6a0"/>
  </g>
  <text x="1228" y="46" text-anchor="end" fill="#35d6a0" font-size="22" font-weight="700">98.5%</text>
  <rect x="80" y="80" width="66" height="66" rx="16" fill="#e5484d"/>
  <rect x="106" y="92" width="14" height="42" rx="3" fill="#fff"/>
  <rect x="92" y="106" width="42" height="14" rx="3" fill="#fff"/>
  <text x="166" y="135" fill="#eef3f9" font-size="64" font-weight="800" letter-spacing="-1.5">Lifeline</text>
  <text x="82" y="194" fill="#9aa7b8" font-size="25">Verified, hands-free first aid on a <tspan fill="#eef3f9" font-weight="600">frozen</tspan> open model — no training.</text>
  <g font-size="16" font-weight="700">
    <rect x="82" y="224" width="148" height="36" rx="18" fill="#35d6a0" fill-opacity="0.14" stroke="#35d6a0"/>
    <text x="156" y="248" text-anchor="middle" fill="#35d6a0">zero training</text>
    <rect x="242" y="224" width="226" height="36" rx="18" fill="#5c9dff" fill-opacity="0.14" stroke="#5c9dff"/>
    <text x="355" y="248" text-anchor="middle" fill="#5c9dff">79.6% → 98.5% verified</text>
    <rect x="480" y="224" width="124" height="36" rx="18" fill="#e5484d" fill-opacity="0.12" stroke="#e5484d"/>
    <text x="542" y="248" text-anchor="middle" fill="#e5484d">17 protocols</text>
  </g>
  <text x="82" y="316" fill="#5f6b7a" font-size="15">Build the machine + Build the future · Inference-Time Compute Hackathon 2026 · powered by Google DiffusionGemma</text>
</svg>
